<svg width="192" height="192" viewBox="0 0 192 192" fill="none" xmlns="http://www.w3.org/2000/svg">
<rect width="192" height="192" rx="22" fill="#66023C"/>
<path d="M142.32 36C137.913 36 133.821 38.3043 131.513 42.0923L106.639 79.3333C105.828 80.5609 106.157 82.2153 107.374 83.0326C108.361 83.6958 109.666 83.6137 110.565 82.8343L135.049 61.4188C135.455 61.0496 136.082 61.0872 136.449 61.4974C136.615 61.6855 136.703 61.9282 136.703 62.1778V129.228C136.703 129.781 136.259 130.226 135.709 130.226C135.414 130.226 135.137 130.096 134.95 129.867L60.9384 40.5265C58.528 37.6581 54.9886 36.0034 51.2627 36H48.676C41.6752 36 36 41.7231 36 48.7829V143.217C36 150.277 41.6752 156 48.676 156C53.0833 156 57.1753 153.696 59.484 149.908L84.3583 112.667C85.1683 111.439 84.8395 109.785 83.6222 108.967C82.6357 108.304 81.3306 108.386 80.4323 109.166L55.948 130.581C55.5412 130.951 54.914 130.913 54.5479 130.502C54.3817 130.314 54.2936 130.072 54.297 129.822V62.7556C54.297 62.2017 54.7411 61.7573 55.2903 61.7573C55.5819 61.7573 55.8633 61.8872 56.0497 62.1163L130.052 151.473C132.462 154.342 136.001 155.997 139.727 156H142.314C149.315 156.004 154.993 150.284 155 143.224V48.7829C155 41.7231 149.321 36 142.32 36Z" fill="white"/>
</svg>
